<svg width="450" height="450" viewBox="0 0 450 450" fill="none" xmlns="http://www.w3.org/2000/svg">
<path d="M450 206.218C280.895 165.55 210.592 269.665 196.579 326.806C240.158 265.803 297.632 254.099 320.921 255.872C258.395 279.517 221.053 317.348 210.197 333.308C239.092 349.859 281.053 348.874 298.421 346.313C379.895 325.032 433.421 244.05 450 206.218Z" fill="#5BB434"/>
<path d="M177.632 101C94.2631 198.416 136.579 279.517 168.158 307.89C147.316 255.872 157.895 216.858 165.789 203.854C159.158 249.724 170.921 288.777 177.632 302.57C204.632 282.236 216.118 255.872 218.487 245.232C231.75 188.958 196.776 125.63 177.632 101Z" fill="#A5D71E"/>
<path d="M0 278.334C102.789 242.395 149.013 296.068 159.276 327.397C129.908 298.078 95.3289 294.689 81.7105 296.659C113.447 304.225 143.092 324.244 153.947 333.308C125.526 353.169 91.1842 348.677 77.5658 343.948C38.25 329.288 9.47368 294.097 0 278.334Z" fill="#81CC2B"/>
</svg>
