<svg width="2142" height="478" viewBox="0 0 2142 478" fill="none" xmlns="http://www.w3.org/2000/svg">
<path d="M380 195C237.2 160.6 177.833 248.667 166 297C202.8 245.4 251.333 235.5 271 237C218.2 257 186.667 289 177.5 302.5C201.9 316.5 237.333 315.667 252 313.5C320.8 295.5 366 227 380 195Z" fill="#5BB434"/>
<path d="M150 106C79.6 188.4 115.333 257 142 281C124.4 237 133.333 204 140 193C134.4 231.8 144.333 264.833 150 276.5C172.8 259.3 182.5 237 184.5 228C195.7 180.4 166.167 126.833 150 106Z" fill="#A5D71E"/>
<path d="M0 256C86.8 225.6 125.833 271 134.5 297.5C109.7 272.7 80.5 269.833 69 271.5C95.8 277.9 120.833 294.833 130 302.5C106 319.3 77 315.5 65.5 311.5C32.3 299.1 8 269.333 0 256Z" fill="#81CC2B"/>
<path d="M639.2 285.9C639.2 292.1 638.1 296.7 635.9 299.7C633.7 302.7 630.2 305.6 625.4 308.4C622.6 310 619.1 311.6 614.9 313.2C610.7 314.6 606.1 315.8 601.1 316.8C596.1 318 590.8 318.9 585.2 319.5C579.8 320.1 574.4 320.4 569 320.4C554.6 320.4 541.1 318.6 528.5 315C515.9 311.2 504.9 305.4 495.5 297.6C486.3 289.8 479 279.9 473.6 267.9C468.2 255.7 465.5 241.2 465.5 224.4C465.5 208.6 468.2 194.7 473.6 182.7C479 170.7 486.4 160.6 495.8 152.4C505.2 144.2 516.2 138 528.8 133.8C541.4 129.6 555 127.5 569.6 127.5C588.6 127.5 603.6 130.5 614.6 136.5C625.8 142.5 631.4 150.4 631.4 160.2C631.4 165.4 630.1 169.9 627.5 173.7C624.9 177.5 621.9 180.5 618.5 182.7C613.5 179.7 607.2 176.8 599.6 174C592 171.2 583.3 169.8 573.5 169.8C565.5 169.8 558.2 171.1 551.6 173.7C545 176.3 539.3 180 534.5 184.8C529.7 189.4 526 195.1 523.4 201.9C520.8 208.5 519.5 215.9 519.5 224.1C519.5 233.1 520.7 241 523.1 247.8C525.7 254.6 529.2 260.3 533.6 264.9C538.2 269.3 543.5 272.7 549.5 275.1C555.7 277.3 562.5 278.4 569.9 278.4C574.3 278.4 578.1 278 581.3 277.2C584.7 276.4 587.3 275.5 589.1 274.5V245.7H557C555.8 243.5 554.6 240.6 553.4 237C552.4 233.4 551.9 229.6 551.9 225.6C551.9 218.4 553.5 213.2 556.7 210C560.1 206.8 564.4 205.2 569.6 205.2H620.3C626.3 205.2 630.9 206.9 634.1 210.3C637.5 213.5 639.2 218.1 639.2 224.1V285.9ZM714.819 314.7C712.619 315.3 709.419 315.9 705.219 316.5C701.219 317.1 696.819 317.4 692.019 317.4C682.019 317.4 674.819 315.8 670.419 312.6C666.019 309.2 663.819 302.8 663.819 293.4V204.3C663.819 198.5 665.319 193.5 668.319 189.3C671.319 184.9 675.419 181.1 680.619 177.9C687.619 173.7 695.719 170.5 704.919 168.3C714.319 166.1 724.119 165 734.319 165C756.119 165 767.019 172.7 767.019 188.1C767.019 191.7 766.519 195.1 765.519 198.3C764.519 201.3 763.319 203.9 761.919 206.1C758.119 205.3 752.619 204.9 745.419 204.9C740.219 204.9 734.819 205.5 729.219 206.7C723.819 207.9 719.019 209.7 714.819 212.1V314.7ZM819.392 262.2C822.192 269.4 826.892 274.5 833.492 277.5C840.092 280.3 847.492 281.7 855.692 281.7C864.092 281.7 872.092 280.7 879.692 278.7C887.292 276.5 893.392 274 897.992 271.2C901.192 273.2 903.892 276 906.092 279.6C908.292 283.2 909.392 287 909.392 291C909.392 296 907.992 300.3 905.192 303.9C902.392 307.5 898.392 310.5 893.192 312.9C888.192 315.3 882.192 317 875.192 318C868.192 319.2 860.492 319.8 852.092 319.8C840.292 319.8 829.292 318.2 819.092 315C809.092 311.6 800.392 306.6 792.992 300C785.592 293.4 779.792 285.1 775.592 275.1C771.392 265.1 769.292 253.4 769.292 240C769.292 226.8 771.392 215.5 775.592 206.1C779.992 196.5 785.692 188.7 792.692 182.7C799.892 176.5 807.992 172 816.992 169.2C825.992 166.2 835.192 164.7 844.592 164.7C855.192 164.7 864.792 166.3 873.392 169.5C882.192 172.7 889.692 177.1 895.892 182.7C902.292 188.3 907.192 195 910.592 202.8C913.992 210.6 915.692 219.1 915.692 228.3C915.692 235.1 913.792 240.3 909.992 243.9C906.192 247.5 900.892 249.8 894.092 250.8L819.392 262.2ZM844.892 201.9C837.292 201.9 830.892 204.2 825.692 208.8C820.692 213.4 817.692 219.9 816.692 228.3L867.692 219.9C867.492 217.9 866.892 215.9 865.892 213.9C864.892 211.7 863.492 209.7 861.692 207.9C859.892 206.1 857.592 204.7 854.792 203.7C851.992 202.5 848.692 201.9 844.892 201.9ZM978.041 262.2C980.841 269.4 985.541 274.5 992.141 277.5C998.741 280.3 1006.14 281.7 1014.34 281.7C1022.74 281.7 1030.74 280.7 1038.34 278.7C1045.94 276.5 1052.04 274 1056.64 271.2C1059.84 273.2 1062.54 276 1064.74 279.6C1066.94 283.2 1068.04 287 1068.04 291C1068.04 296 1066.64 300.3 1063.84 303.9C1061.04 307.5 1057.04 310.5 1051.84 312.9C1046.84 315.3 1040.84 317 1033.84 318C1026.84 319.2 1019.14 319.8 1010.74 319.8C998.941 319.8 987.941 318.2 977.741 315C967.741 311.6 959.041 306.6 951.641 300C944.241 293.4 938.441 285.1 934.241 275.1C930.041 265.1 927.941 253.4 927.941 240C927.941 226.8 930.041 215.5 934.241 206.1C938.641 196.5 944.341 188.7 951.341 182.7C958.541 176.5 966.641 172 975.641 169.2C984.641 166.2 993.841 164.7 1003.24 164.7C1013.84 164.7 1023.44 166.3 1032.04 169.5C1040.84 172.7 1048.34 177.1 1054.54 182.7C1060.94 188.3 1065.84 195 1069.24 202.8C1072.64 210.6 1074.34 219.1 1074.34 228.3C1074.34 235.1 1072.44 240.3 1068.64 243.9C1064.84 247.5 1059.54 249.8 1052.74 250.8L978.041 262.2ZM1003.54 201.9C995.941 201.9 989.541 204.2 984.341 208.8C979.341 213.4 976.341 219.9 975.341 228.3L1026.34 219.9C1026.14 217.9 1025.54 215.9 1024.54 213.9C1023.54 211.7 1022.14 209.7 1020.34 207.9C1018.54 206.1 1016.24 204.7 1013.44 203.7C1010.64 202.5 1007.34 201.9 1003.54 201.9ZM1236.29 314.7C1234.09 315.3 1230.89 315.9 1226.69 316.5C1222.69 317.1 1218.29 317.4 1213.49 317.4C1203.49 317.4 1196.29 315.8 1191.89 312.6C1187.49 309.2 1185.29 302.8 1185.29 293.4V222.6C1185.29 216.4 1183.39 211.9 1179.59 209.1C1175.99 206.1 1171.19 204.6 1165.19 204.6C1161.19 204.6 1157.39 205.1 1153.79 206.1C1150.39 207.1 1147.09 208.4 1143.89 210V314.7C1141.69 315.3 1138.49 315.9 1134.29 316.5C1130.29 317.1 1125.89 317.4 1121.09 317.4C1111.09 317.4 1103.89 315.8 1099.49 312.6C1095.09 309.2 1092.89 302.8 1092.89 293.4V203.1C1092.89 197.7 1093.99 193.3 1096.19 189.9C1098.59 186.5 1101.79 183.4 1105.79 180.6C1112.59 175.8 1121.09 172 1131.29 169.2C1141.69 166.2 1153.19 164.7 1165.79 164.7C1188.39 164.7 1205.79 169.7 1217.99 179.7C1230.19 189.5 1236.29 203.3 1236.29 221.1V314.7Z" fill="#A5D71E"/>
<path d="M1372.25 314.7C1370.05 315.3 1366.65 315.9 1362.05 316.5C1357.45 317.1 1352.75 317.4 1347.95 317.4C1337.35 317.4 1329.95 315.6 1325.75 312C1321.75 308.4 1319.75 301.9 1319.75 292.5V132.6C1322.15 132.2 1325.65 131.7 1330.25 131.1C1334.85 130.3 1339.45 129.9 1344.05 129.9C1354.05 129.9 1361.25 131.6 1365.65 135C1370.05 138.4 1372.25 145 1372.25 154.8V203.4H1429.85V132.6C1432.25 132.2 1435.75 131.7 1440.35 131.1C1444.95 130.3 1449.55 129.9 1454.15 129.9C1464.15 129.9 1471.35 131.7 1475.75 135.3C1480.15 138.9 1482.35 145.6 1482.35 155.4V314.7C1480.15 315.3 1476.75 315.9 1472.15 316.5C1467.55 317.1 1462.85 317.4 1458.05 317.4C1447.45 317.4 1440.05 315.6 1435.85 312C1431.85 308.4 1429.85 301.9 1429.85 292.5V244.8H1372.25V314.7ZM1662.31 242.1C1662.31 254.1 1660.41 264.9 1656.61 274.5C1653.01 284.1 1647.71 292.3 1640.71 299.1C1633.91 305.7 1625.71 310.8 1616.11 314.4C1606.51 318 1595.71 319.8 1583.71 319.8C1571.71 319.8 1560.91 318.1 1551.31 314.7C1541.71 311.1 1533.41 306 1526.41 299.4C1519.61 292.6 1514.31 284.4 1510.51 274.8C1506.91 265.2 1505.11 254.3 1505.11 242.1C1505.11 230.3 1507.01 219.6 1510.81 210C1514.61 200.4 1519.91 192.3 1526.71 185.7C1533.71 178.9 1542.01 173.7 1551.61 170.1C1561.21 166.5 1571.91 164.7 1583.71 164.7C1595.51 164.7 1606.21 166.6 1615.81 170.4C1625.41 174 1633.61 179.2 1640.41 186C1647.41 192.6 1652.81 200.7 1656.61 210.3C1660.41 219.9 1662.31 230.5 1662.31 242.1ZM1583.71 204.6C1575.31 204.6 1568.81 207.9 1564.21 214.5C1559.61 220.9 1557.31 230.1 1557.31 242.1C1557.31 254.7 1559.61 264.2 1564.21 270.6C1568.81 276.8 1575.31 279.9 1583.71 279.9C1592.11 279.9 1598.61 276.7 1603.21 270.3C1607.81 263.9 1610.11 254.5 1610.11 242.1C1610.11 230.1 1607.81 220.9 1603.21 214.5C1598.61 207.9 1592.11 204.6 1583.71 204.6ZM1756.49 319.5C1751.69 319.5 1747.29 319.1 1743.29 318.3C1739.29 317.7 1735.59 316.8 1732.19 315.6V368.4C1729.99 369 1726.79 369.6 1722.59 370.2C1718.59 370.8 1714.19 371.1 1709.39 371.1C1699.39 371.1 1692.19 369.4 1687.79 366C1683.39 362.8 1681.19 356.5 1681.19 347.1V201C1681.19 195.6 1682.29 191.1 1684.49 187.5C1686.89 183.9 1690.09 180.8 1694.09 178.2C1700.29 174.2 1708.19 171 1717.79 168.6C1727.59 166 1738.49 164.7 1750.49 164.7C1762.49 164.7 1773.49 166.2 1783.49 169.2C1793.49 172.2 1802.09 176.8 1809.29 183C1816.49 189.2 1821.99 197.1 1825.79 206.7C1829.79 216.3 1831.79 227.8 1831.79 241.2C1831.79 254 1829.89 265.3 1826.09 275.1C1822.29 284.7 1816.99 292.8 1810.19 299.4C1803.39 306 1795.39 311 1786.19 314.4C1777.19 317.8 1767.29 319.5 1756.49 319.5ZM1748.69 279.3C1758.69 279.3 1766.29 276.1 1771.49 269.7C1776.89 263.3 1779.59 253.8 1779.59 241.2C1779.59 228.4 1777.09 219.1 1772.09 213.3C1767.29 207.5 1760.09 204.6 1750.49 204.6C1746.69 204.6 1743.19 205.1 1739.99 206.1C1736.79 206.9 1734.09 207.9 1731.89 209.1V275.1C1734.29 276.3 1736.89 277.3 1739.69 278.1C1742.49 278.9 1745.49 279.3 1748.69 279.3ZM1894.48 262.2C1897.28 269.4 1901.98 274.5 1908.58 277.5C1915.18 280.3 1922.58 281.7 1930.78 281.7C1939.18 281.7 1947.18 280.7 1954.78 278.7C1962.38 276.5 1968.48 274 1973.08 271.2C1976.28 273.2 1978.98 276 1981.18 279.6C1983.38 283.2 1984.48 287 1984.48 291C1984.48 296 1983.08 300.3 1980.28 303.9C1977.48 307.5 1973.48 310.5 1968.28 312.9C1963.28 315.3 1957.28 317 1950.28 318C1943.28 319.2 1935.58 319.8 1927.18 319.8C1915.38 319.8 1904.38 318.2 1894.18 315C1884.18 311.6 1875.48 306.6 1868.08 300C1860.68 293.4 1854.88 285.1 1850.68 275.1C1846.48 265.1 1844.38 253.4 1844.38 240C1844.38 226.8 1846.48 215.5 1850.68 206.1C1855.08 196.5 1860.78 188.7 1867.78 182.7C1874.98 176.5 1883.08 172 1892.08 169.2C1901.08 166.2 1910.28 164.7 1919.68 164.7C1930.28 164.7 1939.88 166.3 1948.48 169.5C1957.28 172.7 1964.78 177.1 1970.98 182.7C1977.38 188.3 1982.28 195 1985.68 202.8C1989.08 210.6 1990.78 219.1 1990.78 228.3C1990.78 235.1 1988.88 240.3 1985.08 243.9C1981.28 247.5 1975.98 249.8 1969.18 250.8L1894.48 262.2ZM1919.98 201.9C1912.38 201.9 1905.98 204.2 1900.78 208.8C1895.78 213.4 1892.78 219.9 1891.78 228.3L1942.78 219.9C1942.58 217.9 1941.98 215.9 1940.98 213.9C1939.98 211.7 1938.58 209.7 1936.78 207.9C1934.98 206.1 1932.68 204.7 1929.88 203.7C1927.08 202.5 1923.78 201.9 1919.98 201.9ZM2132.33 271.5C2132.33 286.7 2126.63 298.6 2115.23 307.2C2103.83 315.8 2087.03 320.1 2064.83 320.1C2056.43 320.1 2048.63 319.5 2041.43 318.3C2034.23 317.1 2028.03 315.3 2022.83 312.9C2017.83 310.3 2013.83 307.1 2010.83 303.3C2008.03 299.5 2006.63 295 2006.63 289.8C2006.63 285 2007.63 281 2009.63 277.8C2011.63 274.4 2014.03 271.6 2016.83 269.4C2022.63 272.6 2029.23 275.5 2036.63 278.1C2044.23 280.5 2052.93 281.7 2062.73 281.7C2068.93 281.7 2073.63 280.8 2076.83 279C2080.23 277.2 2081.93 274.8 2081.93 271.8C2081.93 269 2080.73 266.8 2078.33 265.2C2075.93 263.6 2071.93 262.3 2066.33 261.3L2057.33 259.5C2039.93 256.1 2026.93 250.8 2018.33 243.6C2009.93 236.2 2005.73 225.7 2005.73 212.1C2005.73 204.7 2007.33 198 2010.53 192C2013.73 186 2018.23 181 2024.03 177C2029.83 173 2036.73 169.9 2044.73 167.7C2052.93 165.5 2061.93 164.4 2071.73 164.4C2079.13 164.4 2086.03 165 2092.43 166.2C2099.03 167.2 2104.73 168.8 2109.53 171C2114.33 173.2 2118.13 176.1 2120.93 179.7C2123.73 183.1 2125.13 187.2 2125.13 192C2125.13 196.6 2124.23 200.6 2122.43 204C2120.83 207.2 2118.73 209.9 2116.13 212.1C2114.53 211.1 2112.13 210.1 2108.93 209.1C2105.73 207.9 2102.23 206.9 2098.43 206.1C2094.63 205.1 2090.73 204.3 2086.73 203.7C2082.93 203.1 2079.43 202.8 2076.23 202.8C2069.63 202.8 2064.53 203.6 2060.93 205.2C2057.33 206.6 2055.53 208.9 2055.53 212.1C2055.53 214.3 2056.53 216.1 2058.53 217.5C2060.53 218.9 2064.33 220.2 2069.93 221.4L2079.23 223.5C2098.43 227.9 2112.03 234 2120.03 241.8C2128.23 249.4 2132.33 259.3 2132.33 271.5Z" fill="#5BB434"/>
</svg>
